<?xml version="1.0" encoding="utf-8"?><svg viewBox="0 0 505 341" xmlns="http://www.w3.org/2000/svg" xmlns:xlink="http://www.w3.org/1999/xlink"><style>:root>svg{display:none}:root>svg:target{display:block}</style><svg fill="none" viewBox="0 0 70 70" id="5" xmlns="http://www.w3.org/2000/svg"><circle cx="35" cy="35" r="35" fill="#F2F2F2"/><path d="M20.872 16h30.102v7.84H24l4.256-1.832-2.153 13.696-2.616.05c.752-1.29 1.778-2.46 3.077-3.512 1.3-1.053 2.906-1.884 4.82-2.495 1.915-.645 4.137-.968 6.667-.968 3.282 0 6.103.544 8.462 1.63 2.393 1.052 4.24 2.528 5.538 4.43 1.3 1.866 1.949 4.038 1.949 6.516 0 2.648-.752 5.007-2.256 7.077-1.47 2.037-3.607 3.649-6.41 4.837C42.563 54.423 39.213 55 35.281 55c-3.795 0-7.111-.543-9.949-1.63-2.803-1.12-5.008-2.613-6.615-4.48-1.573-1.9-2.479-4.022-2.718-6.364h10.564c.342 1.324 1.265 2.393 2.77 3.208 1.504.78 3.487 1.17 5.948 1.17 1.71 0 3.162-.22 4.359-.661 1.197-.475 2.12-1.12 2.77-1.935.649-.849.974-1.85.974-3.004 0-1.086-.291-2.053-.872-2.902-.581-.849-1.453-1.493-2.616-1.935-1.162-.475-2.598-.712-4.307-.712-1.436 0-2.718.152-3.846.458-1.129.305-2.12.696-2.975 1.17-.82.476-1.521.985-2.102 1.528h-9.18L20.872 16z" fill="#303030"/></svg><svg fill="none" viewBox="0 0 13 13" id="arrow" xmlns="http://www.w3.org/2000/svg"><path d="M12.874 1.86a1 1 0 00-.975-1.026L2.902.604a1 1 0 00-.05 2l7.997.204-.204 7.997a1 1 0 101.999.051l.23-8.997zM1.689 12.89L12.563 2.56l-1.378-1.45L.311 11.44l1.378 1.45z" fill="#303030"/></svg><svg fill="none" viewBox="0 0 16 8" id="arrow-grey" xmlns="http://www.w3.org/2000/svg"><path d="M15.354 4.354a.5.5 0 000-.708L12.172.464a.5.5 0 10-.708.708L14.293 4l-2.829 2.828a.5.5 0 10.708.708l3.182-3.182zM0 4.5h15v-1H0v1z" fill="#8B8989"/></svg><svg fill="none" viewBox="0 0 14 8" id="arrow-small" xmlns="http://www.w3.org/2000/svg"><path d="M7 8L.938.364h12.124L7 8z" fill="#3E3B3B"/></svg><svg fill="none" viewBox="0 0 13 14" id="arrow-white" xmlns="http://www.w3.org/2000/svg"><path d="M12.874 2.026A1 1 0 0011.899 1L2.902.77a1 1 0 00-.05 2l7.997.204-.204 7.998a1 1 0 101.999.05l.23-8.996zM1.689 13.057L12.563 2.725l-1.378-1.45L.311 11.607l1.378 1.45z" fill="#F2F2F2"/></svg><svg fill="none" viewBox="0 0 70 70" id="call" xmlns="http://www.w3.org/2000/svg"><circle cx="35" cy="35" r="35" fill="#F2F2F2"/><path d="M52.077 43.325l-7.87-2.664a2.597 2.597 0 00-2.538.507l-2.602 2.284a1.372 1.372 0 01-1.317.273c-1.5-.479-4.621-1.474-7.31-4.165-2.69-2.69-3.686-5.81-4.165-7.31-.145-.456-.04-.96.273-1.317l2.284-2.602a2.595 2.595 0 00.507-2.538l-2.663-7.87a4.273 4.273 0 00-3.112-2.812 4.231 4.231 0 00-3.988 1.156c-3.586 3.638-10.271 13.757 5.065 29.092C31.989 52.71 38.139 55 42.953 55c5.232 0 8.885-2.709 10.78-4.576a4.23 4.23 0 001.156-3.988 4.272 4.272 0 00-2.811-3.112zm.794 6.224c-1.961 1.934-5.267 4.229-9.907 4.229h-.093c-5.395-.036-11.237-3.16-17.363-9.287-6.126-6.126-9.25-11.967-9.286-17.363-.03-4.689 2.282-8.026 4.228-10a3.002 3.002 0 012.838-.822 3.054 3.054 0 012.224 2.01l2.664 7.87c.155.459.053.97-.267 1.334l-2.284 2.602a2.607 2.607 0 00-.52 2.5c.508 1.592 1.565 4.905 4.466 7.806 2.9 2.9 6.213 3.957 7.806 4.465a2.606 2.606 0 002.5-.52l2.6-2.284c.365-.32.876-.422 1.335-.266l7.87 2.663a3.054 3.054 0 012.01 2.225 3.01 3.01 0 01-.822 2.838z" fill="#303030"/><path d="M35.813 20.582A4.506 4.506 0 0034 22.192l1.893 1.28c.267-.393.599-.688.995-.884a2.95 2.95 0 011.332-.296c.588 0 1.034.127 1.339.38.305.253.457.615.457 1.087 0 .326-.08.654-.24.986-.16.33-.471.727-.93 1.188l-4.333 4.297V32H43v-2.224h-4.83l2.583-2.562c.739-.72 1.236-1.36 1.492-1.922a4.286 4.286 0 00.385-1.803c0-.708-.174-1.323-.52-1.846-.349-.522-.835-.927-1.46-1.213-.627-.287-1.357-.43-2.19-.43-.995 0-1.877.194-2.647.582zM49.593 20L44 27.611v1.869h6.39V32h2.678v-2.52H55v-2.263h-1.932V24.97h-2.593v2.246h-3.187L52.475 20h-2.882z" fill="#303030"/></svg><svg fill="none" viewBox="0 0 70 70" id="card" xmlns="http://www.w3.org/2000/svg"><circle cx="35" cy="35" r="35" fill="#F2F2F2"/><path fill-rule="evenodd" clip-rule="evenodd" d="M17.078 21.134h35.324v3.2H17.078v-3.2zm37.402 0v11.733c0 .589-.465 1.066-1.039 1.066a1.052 1.052 0 01-1.039-1.066H17.078V44.6h21.818c.574 0 1.039.477 1.039 1.066 0 .59-.465 1.067-1.039 1.067H16.04c-.574 0-1.039-.478-1.039-1.067v-25.6c0-.588.465-1.066 1.04-1.066H53.44c.574 0 1.04.478 1.04 1.067v1.067zm-2.078 5.333v4.267H17.078v-4.267h35.324zm-24.935 16c.574 0 1.04-.478 1.04-1.067s-.466-1.066-1.04-1.066h-6.233c-.574 0-1.04.477-1.04 1.066 0 .59.466 1.067 1.04 1.067h6.233zm23.897-2.88c.429.391.467 1.065.086 1.506l-3.466 4.002a1.02 1.02 0 01-1.425.124l-1.786-1.466a1.086 1.086 0 01-.163-1.5 1.021 1.021 0 011.46-.166l1.017.834 2.81-3.246a1.02 1.02 0 011.467-.088zm-3.197-5.553a1.013 1.013 0 00-.879 0l-6.233 2.986c-.401.192-.64.624-.595 1.075l.39 3.924c.348 3.502 2.357 6.602 5.368 8.285l1.013.566c.31.173.684.173.993 0l1.013-.566c3.011-1.683 5.02-4.783 5.368-8.285l.39-3.924a1.073 1.073 0 00-.594-1.075l-6.234-2.986zm-5.25 7.768l-.315-3.17 5.125-2.455 5.126 2.456-.316 3.17c-.278 2.8-1.885 5.28-4.294 6.628l-.516.288-.515-.288c-2.41-1.347-4.016-3.827-4.295-6.629z" fill="#303030"/></svg><svg fill="none" viewBox="0 0 70 70" id="chat" xmlns="http://www.w3.org/2000/svg"><circle cx="35" cy="35" r="35" fill="#F2F2F2"/><path d="M18.527 18C16.587 18 15 19.618 15 21.594v.003c.015 7.76 0 15.478 0 23.215 0 .823.51 1.495 1.157 1.771a1.88 1.88 0 002.059-.397l5.652-5.66h4.712v3.39c0 1.677 1.348 3.05 2.996 3.05H47.61l4.554 4.551a1.664 1.664 0 001.815.355A1.71 1.71 0 0055 50.306c0-6.28-.012-12.543 0-18.842 0-1.677-1.349-3.056-2.996-3.056H47.22v-6.816c0-1.976-1.587-3.592-3.528-3.592H18.527zm0 1.438h25.166c1.178 0 2.115.955 2.115 2.155v15.34c0 1.2-.937 2.155-2.115 2.155h-20.11a.7.7 0 00-.495.206l-5.863 5.861c-.172.172-.347.181-.52.107a.446.446 0 01-.293-.45c0-7.736.015-15.456 0-23.22 0-1.2.937-2.155 2.115-2.155v.001zm4.162 4.882a.699.699 0 00-.503.21.725.725 0 00.002 1.018.7.7 0 00.5.209h16.844a.7.7 0 00.5-.209.725.725 0 00.002-1.018.699.699 0 00-.502-.21H22.689zm0 4.229a.698.698 0 00-.5.208.724.724 0 00-.003 1.018.7.7 0 00.502.21h16.844a.7.7 0 00.502-.21.726.726 0 00-.002-1.018.698.698 0 00-.5-.209H22.689zm24.532 1.298h4.784c.883 0 1.584.716 1.584 1.617-.012 6.301 0 12.566 0 18.843 0 .145-.06.197-.156.238-.096.042-.175.05-.277-.052l-4.762-4.76a.7.7 0 00-.496-.206H31.576c-.884 0-1.584-.712-1.584-1.612v-3.39h13.7c1.942 0 3.53-1.616 3.53-3.592v-7.086zM22.69 32.77a.698.698 0 00-.5.209.724.724 0 00-.003 1.018.7.7 0 00.502.21h8.985a.7.7 0 00.498-.212.723.723 0 00.205-.509.712.712 0 00-.703-.715H22.69z" fill="#303030"/></svg><svg fill="none" viewBox="0 0 70 70" id="clock" xmlns="http://www.w3.org/2000/svg"><circle cx="35" cy="35" r="35" fill="#F2F2F2"/><path d="M34.066 39.021c0 .37-.15.724-.419.986-.267.261-.63.408-1.01.408h-16.21c-.51 0-.98-.266-1.236-.697a1.366 1.366 0 010-1.394 1.434 1.434 0 011.237-.697h16.21c.379 0 .742.147 1.01.408.267.262.417.616.417.986zm-1.428 4.182H20.71c-.51 0-.981.266-1.236.697a1.366 1.366 0 000 1.395c.255.43.726.697 1.236.697h11.927c.51 0 .981-.266 1.236-.697a1.365 1.365 0 000-1.395 1.434 1.434 0 00-1.236-.697zm0 5.577h-7.643c-.51 0-.982.265-1.237.697a1.366 1.366 0 000 1.394c.255.431.727.697 1.237.697h7.643c.51 0 .981-.266 1.236-.697a1.365 1.365 0 000-1.394 1.434 1.434 0 00-1.236-.697zm7.567-10.13l5.743-5.6c.35-.354.483-.862.35-1.337a1.41 1.41 0 00-1-.976c-.486-.13-1.007 0-1.37.342l-5.739 5.596c-.276.26-.432.616-.436.99-.003.374.148.734.418.998.271.265.64.412 1.022.408a1.443 1.443 0 001.015-.425l-.003.004zm.419-16.26v-2.602h1.35c.51 0 .982-.266 1.237-.697a1.366 1.366 0 000-1.394A1.434 1.434 0 0041.974 17H36.42c-.51 0-.982.266-1.236.697a1.366 1.366 0 000 1.394c.255.431.726.697 1.236.697h1.35v2.599a15.847 15.847 0 00-8.936 3.727l-1.876-1.832a1.453 1.453 0 00-1.38-.361 1.413 1.413 0 00-1.01.985c-.133.482.008.995.368 1.348l1.936 1.889a15.24 15.24 0 00-2.654 4.879c-.136.47-.01.976.331 1.332.342.357.85.513 1.34.412a1.42 1.42 0 001.052-.907 12.517 12.517 0 014.651-6.34 13.014 13.014 0 017.595-2.415h.023c4.594.001 8.837 2.395 11.133 6.28a12.298 12.298 0 01-.005 12.554c-2.297 3.884-6.543 6.275-11.136 6.273-.249 0-.499-.012-.787-.026a1.448 1.448 0 00-1.017.367 1.381 1.381 0 00-.46.959 1.39 1.39 0 00.381 1.007c.258.273.616.436.996.454.295.014.592.028.887.028 4.057.023 7.967-1.488 10.909-4.217 2.942-2.728 4.688-6.463 4.873-10.42.184-3.959-1.207-7.833-3.883-10.811-2.676-2.979-6.429-4.83-10.472-5.167l-.005.004z" fill="#303030"/></svg><svg fill="none" viewBox="0 0 12 12" id="close" xmlns="http://www.w3.org/2000/svg"><path d="M1.333 11.833L.167 10.667 4.833 6 .167 1.333 1.333.167 6 4.833 10.666.167l1.167 1.166L7.166 6l4.667 4.667-1.167 1.166L6 7.167l-4.667 4.666z" fill="#C6C1C1"/></svg><svg fill="none" viewBox="0 0 20 20" id="custom-checkbox-checked" xmlns="http://www.w3.org/2000/svg"><rect x=".5" y=".5" width="19" height="19" rx="1.5" fill="#fff"/><path d="M8.575 11.175l5.9-5.9a.948.948 0 01.7-.275.95.95 0 01.7.275.948.948 0 01.275.7.948.948 0 01-.275.7l-6.6 6.6c-.2.2-.433.3-.7.3a.96.96 0 01-.7-.3l-2.6-2.6a.948.948 0 01-.275-.7.95.95 0 01.275-.7.948.948 0 01.7-.275.95.95 0 01.7.275l1.9 1.9z" fill="#303030"/><rect x=".5" y=".5" width="19" height="19" rx="1.5" stroke="#303030"/></svg><svg fill="none" viewBox="0 0 20 20" id="custom-checkbox-unchecked" xmlns="http://www.w3.org/2000/svg"><rect x=".5" y=".5" width="19" height="19" rx="1.5" fill="#fff"/><rect x=".5" y=".5" width="19" height="19" rx="1.5" stroke="#303030"/></svg><svg fill="none" viewBox="0 0 70 70" id="delivery" xmlns="http://www.w3.org/2000/svg"><circle cx="35" cy="35" r="35" fill="#F2F2F2"/><path d="M21.806 24c-.378.002-.685.323-.686.72.001.396.308.717.686.719h19.015V41.89h-8.675c-.24-1.72-1.649-3.06-3.345-3.06-1.695 0-3.104 1.34-3.344 3.06h-2.958v-3.13a.741.741 0 00-.202-.513.675.675 0 00-.49-.212.675.675 0 00-.488.214.74.74 0 00-.2.511v3.855c.002.396.308.718.687.72h3.73C25.922 44.858 27.239 46 28.801 46s2.88-1.14 3.265-2.666h12.582C45.034 44.86 46.351 46 47.913 46s2.877-1.14 3.261-2.666h3.14c.378-.001.684-.323.686-.719v-6.707a.757.757 0 00-.05-.27l-2.582-6.701a.691.691 0 00-.636-.453h-9.53V24.72c-.002-.397-.31-.719-.689-.72H21.807zm-3.003 4.568a.676.676 0 00-.487.214.74.74 0 00-.2.511c.001.397.308.718.687.72h10.406a.674.674 0 00.488-.21.738.738 0 00.204-.51.738.738 0 00-.202-.513.674.674 0 00-.49-.212H18.803zm23.4 1.36h9.06l2.027 5.261H42.202v-5.26zm-26.51 3.245a.674.674 0 00-.49.21.739.739 0 000 1.02c.13.136.307.211.49.21h13.516a.672.672 0 00.488-.21.738.738 0 000-1.02.674.674 0 00-.488-.21H15.693zm26.51 3.46H53.62v5.257h-2.368c-.24-1.72-1.643-3.06-3.34-3.06-1.695 0-3.102 1.34-3.343 3.06h-2.368v-5.257zM28.75 40.275h.05c1.107 0 2.001.94 2.001 2.136 0 1.196-.894 2.144-2 2.144-1.107 0-2-.948-2-2.144 0-1.177.866-2.108 1.949-2.136zm19.111 0h.052c1.106 0 2.001.94 2.001 2.136 0 1.196-.895 2.144-2.001 2.144-1.107 0-2-.948-2-2.144 0-1.177.866-2.108 1.948-2.136z" fill="#303030"/></svg><svg fill="none" viewBox="0 0 70 70" id="gear" xmlns="http://www.w3.org/2000/svg"><circle cx="35" cy="35" r="35" fill="#F2F2F2"/><path fill-rule="evenodd" clip-rule="evenodd" d="M42.721 30.578a1.254 1.254 0 01-.076 1.764l-7.734 7.156a1.234 1.234 0 01-.837.329c-.024 0-.048 0-.07-.006a1.235 1.235 0 01-.867-.424l-3.879-4.51a1.26 1.26 0 01-.223-1.22 1.234 1.234 0 012.094-.421l3.046 3.539L40.97 30.5a1.236 1.236 0 011.75.078zm9.57 10.108a.548.548 0 00.2-.625l-1.267-4.158a3.01 3.01 0 010-1.809l1.268-4.157a.55.55 0 00-.2-.626l-3.45-2.612a2.962 2.962 0 01-1.052-1.462l-1.394-4.113a.537.537 0 00-.529-.385l-4.31-.067a2.962 2.962 0 01-1.704-.558l-3.527-2.506a.53.53 0 00-.651 0l-3.527 2.506a2.966 2.966 0 01-1.704.558l-4.31.067a.536.536 0 00-.53.385l-1.396 4.113a2.962 2.962 0 01-1.052 1.462l-3.447 2.612a.55.55 0 00-.2.625l1.268 4.158a3.01 3.01 0 010 1.809l-1.269 4.157a.55.55 0 00.201.625l3.449 2.612c.493.365.86.877 1.052 1.463l1.397 4.113a.53.53 0 00.528.385l4.312.073c.61 0 1.206.196 1.7.558l3.528 2.5a.54.54 0 00.65 0l3.528-2.5a2.885 2.885 0 011.703-.558l4.311-.073a.53.53 0 00.529-.385l1.396-4.113a2.964 2.964 0 011.052-1.463l3.449-2.612h-.002zm2.569-1.362l-1.268-4.158a.503.503 0 010-.335l1.268-4.158a3.065 3.065 0 00-.007-1.855 3.039 3.039 0 00-1.075-1.505l-3.448-2.612a.489.489 0 01-.196-.273l-1.396-4.114c-.2-.6-.58-1.122-1.087-1.495a3 3 0 00-1.745-.58l-4.312-.068a.498.498 0 01-.316-.106l-3.527-2.5a2.997 2.997 0 00-3.501 0l-3.528 2.501a.498.498 0 01-.316.106l-4.311.067a3 3 0 00-1.745.581 3.045 3.045 0 00-1.088 1.495l-1.396 4.114a.49.49 0 01-.196.274l-3.448 2.61a3.04 3.04 0 00-1.075 1.505 3.063 3.063 0 00-.007 1.855l1.269 4.158a.506.506 0 010 .335l-1.269 4.158a3.063 3.063 0 00.008 1.855 3.034 3.034 0 001.074 1.505l3.448 2.612a.49.49 0 01.196.273l1.396 4.114a3.027 3.027 0 001.085 1.497c.509.373 1.12.575 1.747.579l4.311.067a.54.54 0 01.317.106l3.527 2.502a2.997 2.997 0 003.502 0l3.527-2.5a.543.543 0 01.316-.107l4.311-.067a2.984 2.984 0 001.748-.578 3.029 3.029 0 001.085-1.498l1.396-4.113a.489.489 0 01.196-.274l3.448-2.612a3.04 3.04 0 001.075-1.505c.193-.602.196-1.25.007-1.855v-.001zM36 44.727a9.599 9.599 0 006.819-2.849A9.772 9.772 0 0045.643 35a9.772 9.772 0 00-2.824-6.88 9.598 9.598 0 00-6.817-2.849 9.598 9.598 0 00-6.818 2.85 9.783 9.783 0 00.003 13.754A9.609 9.609 0 0036 44.727zm0-21.956a12.065 12.065 0 00-8.57 3.58 12.284 12.284 0 00-3.552 8.647c0 3.243 1.276 6.354 3.549 8.647a12.065 12.065 0 008.57 3.583c3.214 0 6.297-1.288 8.57-3.581a12.3 12.3 0 00-.002-17.29 12.077 12.077 0 00-8.566-3.587l.001.001z" fill="#303030"/></svg><svg fill="none" viewBox="0 0 70 70" id="map" xmlns="http://www.w3.org/2000/svg"><circle cx="35" cy="35" r="35" fill="#F2F2F2"/><path d="M54.121 46a.872.872 0 01-.879-.864V18.617c0-1.042-.79-1.889-1.762-1.889-.966 0-1.722.83-1.722 1.89v8.305a.872.872 0 01-.879.865.872.872 0 01-.879-.865v-8.306C48 16.59 49.528 15 51.48 15c1.94 0 3.52 1.623 3.52 3.617v26.519a.872.872 0 01-.88.864h.001zm-5.242 0a.872.872 0 01-.879-.864V31.244c0-.477.394-.864.88-.864.484 0 .878.387.878.864v13.892a.872.872 0 01-.879.864z" fill="#303030"/><path d="M49.633 51l-33.782-.063A.86.86 0 0115 50.07v-2.647a.86.86 0 01.853-.867.86.86 0 01.853.867v1.782l32.928.062a3.757 3.757 0 003.677-2.994.853.853 0 011.008-.674.866.866 0 01.663 1.023A5.476 5.476 0 0149.632 51h.001zm-.48-4.472h-.024a.86.86 0 01-.83-.867V19.734h-2.003c-.324.319-.673.638-1.037.972-.49.45-.998.915-1.505 1.435a.846.846 0 01-1.212 0 36.639 36.639 0 00-1.502-1.433c-.365-.335-.714-.654-1.038-.974h-1.1a.86.86 0 01-.852-.867.86.86 0 01.853-.867h1.45c.23 0 .45.094.61.26.357.37.776.754 1.22 1.16.315.29.637.585.965.9.33-.315.652-.611.968-.9.443-.407.862-.79 1.22-1.16.16-.166.38-.26.608-.26h3.208a.86.86 0 01.853.867v23.805a3.294 3.294 0 012.33-.39c.462.095.76.552.667 1.021a.853.853 0 01-1.006.678 1.594 1.594 0 00-.32-.033c-.898 0-1.617.757-1.672 1.76a.859.859 0 01-.851.82zm-33.3-2.572A.86.86 0 0115 43.09V18.867a.86.86 0 01.853-.867h18.79a.86.86 0 01.854.867.86.86 0 01-.853.867H16.707v23.355a.86.86 0 01-.854.867z" fill="#303030"/><path d="M19 51c-.552 0-1-.38-1-.85v-15.3c0-.47.448-.85 1-.85s1 .38 1 .85v15.3c0 .47-.448.85-1 .85zm20.817-9c-.064 0-.131-.003-.201-.006a3.56 3.56 0 00-.149-.004h-.853a1.702 1.702 0 01-1.68-1.388c-.066-.362-.147-.549-.195-.636a3.395 3.395 0 01-.34.019c-.471 0-1.257-.15-1.383-1.117l-.157-.08-.235-.113a57.91 57.91 0 01-.53-.258c-.399-.197-.676-.503-.86-.706l-.017-.018h-3.062c-.018.374-.077 1.486-1.44 1.486-.149 0-.311-.009-.5-.02a17.54 17.54 0 00-.746-.032c-.124.12-.301.312-.42.44-.573.618-.919.991-1.433.991h-.126c-.652 0-1.046 0-1.391-.132-.521-.2-.786-.635-.786-1.29 0-.144.01-.302.02-.485.014-.226.03-.5.034-.834-.203-.494-1.158-2.35-1.484-2.983-.11-.215-.197-.382-.244-.476-.436-.865-.639-1.545-.639-2.14 0-1.673 1.475-2.16 2.902-2.63.095-.033.192-.065.292-.098.228-.079.448-.145.662-.208.206-.062.402-.12.584-.185.118-.042.215-.074.296-.1l.06-.02.113-.186.006-.01a330.032 330.032 0 011.354-2.24c.056-.094.11-.185.174-.288.487-.8 1.037-1.585 1.902-1.585.395 0 .697.165.963.31.163.089.32.175.513.23l.056-.187a8.76 8.76 0 01.086-.276c.02-.058.041-.133.065-.214.189-.64.423-1.434 1.223-1.434.564 0 1.074-.03 1.523-.057.361-.022.673-.04.955-.04.492 0 .82.059 1.1.197.462.227.728.663.728 1.196 0 .356-.113.764-.365 1.322l1.573.765c.19-.287.273-.696.368-1.168.042-.21.086-.43.143-.657.017-.068.033-.143.048-.219.09-.434.279-1.339 1.148-1.339.082 0 .155-.002.217-.004.065-.002.123-.004.173-.004.875 0 1.109.64 1.109 1.018v1.347c.84.404.985 1.28 1.115 2.055.04.245.083.498.144.744l.033.136c.052.024.112.053.18.087.2.1.35.169.47.225.563.26.694.377 1.003.895l.099.164c.04.067.115.186.21.34C46 32.962 46 33.088 46 33.393c0 1.464-.202 2.585-.654 3.635a.86.86 0 01-1.125.447.848.848 0 01-.452-1.115c.348-.807.504-1.656.516-2.82-.155-.316-.666-1.172-1.52-2.55a55.12 55.12 0 01-.324-.529l-.086-.142-.166-.078a18.41 18.41 0 01-.514-.246 8.988 8.988 0 00-.259-.123c-.462-.214-.687-.405-.797-.97a4.22 4.22 0 00-.052-.24 10.931 10.931 0 01-.172-.877c-.047-.279-.116-.695-.194-.813a1.639 1.639 0 01-.587-.473 3.333 3.333 0 01-.445.958 1.694 1.694 0 01-1.397.726c-.26 0-.521-.06-.755-.174l-1.586-.772a1.68 1.68 0 01-.805-2.213c.06-.132.103-.239.135-.325h-.031c-.23 0-.519.017-.853.037-.343.02-.72.043-1.137.054-.025.08-.048.159-.065.218-.03.102-.058.196-.084.273a5.45 5.45 0 00-.068.222c-.196.654-.438 1.468-1.234 1.468-.881 0-1.437-.303-1.805-.503a19.548 19.548 0 00-.08-.043c-.091.102-.249.306-.495.71l-.168.277-.134.222c-.4.659-.796 1.31-1.218 2.017l-.008.012c-.355.59-.5.747-1.104.947a7.44 7.44 0 00-.255.087c-.226.08-.453.148-.673.213-.204.061-.398.118-.59.186l-.011.003-.303.101c-1.422.47-1.729.65-1.729 1.017 0 .215.08.629.457 1.379l.238.464c1.673 3.249 1.673 3.353 1.673 3.63 0 .443-.021.786-.037 1.062l-.007.102c.104.002.218.002.326.003.124-.12.303-.313.422-.442.573-.618.92-.992 1.434-.992a17.526 17.526 0 011.234.045 1.701 1.701 0 011.692-1.477h3.334c.502 0 .806.337 1.03.583.112.124.24.266.348.319.178.088.348.17.517.252l.243.118.01.005.4.201c.405.21.566.53.634.792a1.65 1.65 0 01.185-.01c.521 0 1.443.264 1.772 2.037h.855c.076 0 .147.003.216.006l.061.003c.075-.07.112-.12.148-.169.333-.449.677-.531 1.236-.531a7.482 7.482 0 01.314.005c.11.003.241.006.358.006h.001a.865.865 0 011.081.072.843.843 0 01.043 1.2c-.213.227-.44.358-.694.402a2.494 2.494 0 01-.43.027c-.132 0-.28-.004-.404-.007l-.173-.004h-.077a3.13 3.13 0 01-.427.41c-.364.291-.776.291-.912.291z" fill="#303030"/></svg><svg fill="none" viewBox="0 0 505 341" id="opening-size" xmlns="http://www.w3.org/2000/svg"><g clip-path="url(#pa)"><path d="M327.329 33H26v277h301.329V33z" fill="#9B6C40" style="mix-blend-mode:multiply" opacity=".4"/><path d="M323.889 34.166H26.91V308.06h296.98V34.166z" fill="#D1D3D4"/><path d="M174.007 35.441H28.891v271.123h145.116V35.441zm147.727-.914H177.033V305.65h144.701V34.527z" fill="#F1F2F2"/><path d="M44.272 259.433c4.961-16.028 11.484-31.761 19.516-47.071 14.98-28.956 33.626-56.555 57.412-81.754 13.869-14.901 29.877-28.614 47.734-40.892V41.671H35.624v247.883c2.972-10.017 5.623-20.104 8.648-30.121zM221.019 66.618c18.013-7.93 37.26-14.162 57.304-18.557 12.128-2.643 24.363-4.722 36.678-6.54v-.734H182.106v47.06c12.033-7.997 25.064-15.106 38.913-21.23z" fill="#fff"/><path d="M131.976 273.318c-19.45 11.289-41.004 20.371-63.971 26.956-8.22 2.371-16.532 4.431-24.898 6.29h130.9v-61.539c-13.11 10.158-27.155 19.613-42.031 28.293z" fill="#BFBFC5" style="mix-blend-mode:multiply" opacity=".4"/><path d="M478 33H327.329v277H478V33z" fill="#9B6C40" style="mix-blend-mode:multiply" opacity=".4"/><path d="M476.273 34.166H327.784V308.06h148.489V34.166z" fill="#D1D3D4"/><path d="M475.336 35.441H330.22v271.123h145.116V35.441z" fill="#F1F2F2"/><path d="M345.614 259.433c4.949-16.03 11.472-31.764 19.516-47.071 14.966-28.956 33.612-56.555 57.372-81.754 13.869-14.901 29.876-28.614 47.734-40.892V41.671H336.953v247.883c2.972-10.017 5.622-20.104 8.661-30.121z" fill="#fff"/><path d="M433.305 273.318c-19.45 11.289-41.004 20.371-63.971 26.956-8.219 2.371-16.532 4.431-24.898 6.29h130.9v-61.539c-13.11 10.158-27.155 19.613-42.031 28.293zM315.75 63.071c-6.01 12.87-13.573 25.32-20.266 37.999-16.411 31.146-35.821 61.558-61.575 89.007-17.194 18.57-36.214 36.148-56.903 52.587v62.986h144.701V47.93a107.562 107.562 0 01-5.957 15.141z" fill="#BFBFC5" style="mix-blend-mode:multiply" opacity=".4"/></g><path d="M505 154.706c0 1.115-.207 2.096-.62 2.944-.413.847-.993 1.508-1.74 1.98-.739.473-1.6.71-2.585.71-.975 0-1.837-.237-2.584-.71-.739-.472-1.319-1.133-1.741-1.98-.413-.848-.619-1.829-.619-2.944v-4.296H505v4.296zm-9.56-3.038l.765-.803v3.894c0 .857.163 1.606.488 2.248a3.65 3.65 0 001.358 1.499c.58.366 1.248.549 2.004.549.774 0 1.446-.183 2.018-.549a3.65 3.65 0 001.358-1.499c.325-.642.488-1.391.488-2.248v-3.894l.751.803h-9.23zm-2.07 9.168l2.11.977-.435.066c0-.169.035-.321.105-.455a.96.96 0 01.317-.307.862.862 0 01.422-.107c.158 0 .298.035.422.107.131.08.232.183.303.307a.853.853 0 01.118.442.833.833 0 01-.448.763.846.846 0 01-.448.12c-.176 0-.356-.035-.541-.107a4.398 4.398 0 01-.738-.361l-1.187-.669v-.776zm1.741 6.833h7.423v1.82l-6.922 3.587v-.643l6.922 3.573v1.82h-7.423v-1.164h7.08v.415l-7.08-3.72v-1.218l7.067-3.721v.415h-7.067v-1.164zm0 12.167h7.423v1.82l-6.922 3.587v-.643l6.922 3.574v1.82h-7.423v-1.165h7.08v.415l-7.08-3.72v-1.218l7.067-3.72V181h-7.067v-1.164zM6.25 179.729a4.078 4.078 0 012.083.843c.598.473 1.064 1.093 1.398 1.861.334.758.501 1.628.501 2.609 0 1.106-.215 2.079-.646 2.918a4.81 4.81 0 01-1.793 1.94c-.774.464-1.666.696-2.677.696-1.02 0-1.912-.232-2.677-.696a4.81 4.81 0 01-1.793-1.94c-.43-.839-.646-1.812-.646-2.918 0-.981.167-1.851.501-2.609.334-.768.8-1.388 1.398-1.861a3.944 3.944 0 012.07-.843v1.272a3.172 3.172 0 00-1.503.696c-.431.356-.76.82-.99 1.391-.237.571-.355 1.227-.355 1.968 0 .865.162 1.619.488 2.261a3.525 3.525 0 001.384 1.472c.598.348 1.306.522 2.123.522.809 0 1.512-.174 2.11-.522a3.61 3.61 0 001.398-1.472c.325-.642.487-1.396.487-2.261 0-.741-.114-1.397-.342-1.968-.238-.571-.567-1.035-.99-1.391a3.266 3.266 0 00-1.529-.696v-1.272zm5.551-.591l-2.11-.977.436-.067a.965.965 0 01-.106.455.964.964 0 01-.316.308.877.877 0 01-.422.107.83.83 0 01-.422-.107.847.847 0 01-.303-.308.853.853 0 01-.12-.442.834.834 0 01.45-.763.847.847 0 01.448-.12 1.5 1.5 0 01.54.107c.185.062.43.183.739.361l1.186.669v.777zm-1.741-6.834H2.638v-1.82l6.923-3.586v.642l-6.923-3.573v-1.82h7.424v1.164H2.98v-.415l7.08 3.721v1.218l-7.067 3.72v-.415h7.068v1.164zm0-12.167H2.638v-1.82l6.923-3.586v.642L2.637 151.8v-1.82h7.424v1.164H2.98v-.415l7.08 3.72v1.218l-7.067 3.721v-.415h7.068v1.164zm227.249 160.878l.145-.321c.8.009 1.446.134 1.938.375.493.232.853.549 1.082.95.228.393.342.83.342 1.312 0 .526-.127.994-.382 1.405-.246.401-.611.718-1.094.95-.484.232-1.082.348-1.794.348h-6.237l.778-5.152-.778-4.885h6.013c.914 0 1.613.219 2.097.656.492.428.738 1.017.738 1.766 0 .393-.097.781-.29 1.165-.185.374-.483.695-.897.963-.413.259-.967.415-1.661.468zm-4.734 4.604l-.474-.629h5.379c.651 0 1.156-.147 1.517-.442.369-.303.554-.736.554-1.298 0-.597-.216-1.057-.647-1.378-.43-.321-1.068-.482-1.911-.482h-4.273v-1.017h4.207c.562 0 1.028-.156 1.397-.468.378-.313.567-.768.567-1.365 0-.437-.154-.794-.461-1.071-.299-.285-.743-.428-1.332-.428h-4.997l.474-.629.712 4.47-.712 4.737zm9.26 2.181l.962-2.141.066.442a.93.93 0 01-.448-.107.963.963 0 01-.303-.321.902.902 0 01-.106-.429c0-.16.035-.303.106-.428a.845.845 0 01.738-.428c.176 0 .325.04.448.12a.802.802 0 01.304.335.877.877 0 01.118.455c0 .178-.035.361-.105.549a4.645 4.645 0 01-.356.749l-.66 1.204h-.764zm6.732-1.766V318.5h1.794l3.533 7.025h-.632l3.52-7.025h1.793v7.534h-1.147v-7.187h.409l-3.666 7.187h-1.2l-3.665-7.173h.409v7.173h-1.148zm11.989 0V318.5h1.793l3.534 7.025h-.633l3.52-7.025h1.794v7.534h-1.147v-7.187h.408l-3.665 7.187h-1.2l-3.666-7.173h.409v7.173h-1.147zM232.668 19.568v-1.07h6.962v1.07h-6.962zm4.259-7.548l4.865 10.037h-1.345l-4.575-9.609h.659l-4.589 9.609h-1.345l4.866-10.037h1.464zm5.526 11.803l.962-2.14.066.44a.925.925 0 01-.448-.106.957.957 0 01-.303-.321.9.9 0 01-.106-.429.85.85 0 01.106-.428.84.84 0 01.303-.308.821.821 0 01.435-.12c.176 0 .325.04.448.12.132.08.233.192.304.335a.878.878 0 01.118.455c0 .178-.035.361-.105.549-.062.187-.18.437-.356.75l-.66 1.203h-.764zm6.732-1.766v-7.534h1.794l3.534 7.026h-.633l3.52-7.026h1.794v7.534h-1.148v-7.186h.409l-3.666 7.186h-1.199l-3.666-7.173h.409v7.173h-1.148zm11.989 0v-7.534h1.793l3.534 7.026h-.633l3.521-7.026h1.793v7.534h-1.147v-7.186h.408l-3.665 7.186h-1.2l-3.666-7.173h.409v7.173h-1.147z" fill="#303030"/><path d="M18.354 29.943a.5.5 0 00-.708 0l-3.182 3.182a.5.5 0 10.708.707L18 31.003l2.828 2.829a.5.5 0 10.707-.707l-3.181-3.182zm-.707 279.934a.5.5 0 00.707 0l3.181-3.182a.5.5 0 10-.707-.707L18 308.816l-2.828-2.828a.5.5 0 00-.708.707l3.182 3.182zM17.5 30.297v279.226h1V30.296h-1zm15.854 282.934a.5.5 0 00-.708 0l-3.181 3.182a.5.5 0 10.707.707L33 314.292l2.828 2.828a.5.5 0 10.707-.707l-3.181-3.182zm-.708 20a.5.5 0 00.708 0l3.181-3.182a.501.501 0 00-.707-.708L33 332.17l-2.828-2.829a.5.5 0 00-.707.708l3.181 3.182zm-.146-19.646v19.292h1v-19.292h-1zm.854-305.981a.5.5 0 00-.708 0l-3.181 3.182a.5.5 0 10.707.707L33 8.665l2.828 2.829a.5.5 0 10.707-.708l-3.181-3.182zm-.708 20a.5.5 0 00.708 0l3.181-3.182a.5.5 0 10-.707-.707L33 26.543l-2.828-2.828a.5.5 0 00-.707.707l3.181 3.182zM32.5 7.958V27.25h1V7.958h-1zm441.854 305.273a.502.502 0 00-.708 0l-3.182 3.182a.5.5 0 00.708.707l2.828-2.828 2.828 2.828a.5.5 0 10.708-.707l-3.182-3.182zm-.708 20a.502.502 0 00.708 0l3.182-3.182a.502.502 0 00-.708-.708L474 332.17l-2.828-2.829a.502.502 0 00-.708.708l3.182 3.182zm-.146-19.646v19.292h1v-19.292h-1zm.854-305.981a.501.501 0 00-.708 0l-3.182 3.182a.5.5 0 00.708.707L474 8.665l2.828 2.829a.501.501 0 00.708-.708l-3.182-3.182zm-.708 20a.501.501 0 00.708 0l3.182-3.182a.5.5 0 00-.708-.707L474 26.543l-2.828-2.828a.501.501 0 00-.708.707l3.182 3.182zM473.5 7.958V27.25h1V7.958h-1zm15.854 21.985a.501.501 0 00-.708 0l-3.182 3.182a.5.5 0 00.708.707L489 31.003l2.828 2.829a.501.501 0 00.708-.707l-3.182-3.182zm-.708 279.934a.502.502 0 00.708 0l3.182-3.182a.5.5 0 00-.708-.707L489 308.816l-2.828-2.828a.5.5 0 00-.708.707l3.182 3.182zm-.146-279.58v279.226h1V30.296h-1z" fill="#000"/><path stroke="#D9DADC" stroke-width="5" d="M29 338.5h450M29 3.428h450"/><defs><clipPath id="pa"><path fill="#fff" transform="translate(26 33)" d="M0 0h452v277H0z"/></clipPath></defs></svg><svg fill="none" viewBox="0 0 27 31" id="play" xmlns="http://www.w3.org/2000/svg"><path d="M27 15.5L.75 30.655V.345L27 15.5z" fill="#fff"/></svg><svg fill="none" viewBox="0 0 70 70" id="price" xmlns="http://www.w3.org/2000/svg"><circle cx="35" cy="35" r="35" fill="#F2F2F2"/><path d="M32.56 34.56a1.5 1.5 0 10-2.121-2.12 1.5 1.5 0 002.122 2.12zm-2.12 7.88a1.5 1.5 0 102.12 2.12 1.5 1.5 0 00-2.12-2.12zM37.875 38h-12.75c-.621 0-1.125.448-1.125 1s.504 1 1.125 1h12.75c.621 0 1.125-.448 1.125-1s-.504-1-1.125-1z" fill="#303030"/><path d="M52.525 17.479a8.392 8.392 0 00-13.89 3.187l-4.602-.512a1.05 1.05 0 00-.86.302L15.308 38.318a1.052 1.052 0 000 1.489l14.887 14.885a1.053 1.053 0 001.488 0l17.865-17.863a1.05 1.05 0 00.301-.86l-.51-4.595a8.4 8.4 0 003.186-13.895zM30.94 52.459L17.541 39.063l16.762-16.76 12.058 1.34.676 6.08a6.299 6.299 0 01-4.932-1.824 1.053 1.053 0 00-1.49 1.488 8.402 8.402 0 006.655 2.43l.431 3.882-16.762 16.76zM49.1 29.214l-.739-6.641a1.052 1.052 0 00-.93-.93l-6.644-.738a6.317 6.317 0 118.312 8.31z" fill="#303030"/></svg><svg fill="none" viewBox="0 0 31 8" id="slider-arrow" xmlns="http://www.w3.org/2000/svg"><path d="M30.354 4.354a.5.5 0 000-.708L27.172.464a.5.5 0 10-.707.708L29.293 4l-2.828 2.828a.5.5 0 10.707.708l3.182-3.182zM0 4.5h30v-1H0v1z" fill="#303030"/></svg><svg fill="none" viewBox="0 0 24 93" id="warning" xmlns="http://www.w3.org/2000/svg"><path d="M1.22 0h21.228l-3.416 61.366H4.636L1.22 0zm10.614 92.598c-3.497 0-6.344-1.017-8.54-3.05C1.098 87.433 0 84.749 0 81.496c0-3.335 1.098-6.019 3.294-8.052 2.196-2.115 5.043-3.172 8.54-3.172 3.497 0 6.344 1.057 8.54 3.172 2.196 2.033 3.294 4.717 3.294 8.052 0 3.253-1.098 5.937-3.294 8.052-2.196 2.033-5.043 3.05-8.54 3.05z" fill="#303030"/></svg></svg>